# xmcd CD database file
#
# Track frame offsets:
#	150
#	15550
#	26925
#	43947
#	65180
#	82347
#	100952
#	122110
#	136702
#	156880
#	172687
#
# Disc length: 2475 seconds
#
# Revision: 1
# Processed by: cddbd v1.4PL0 Copyright (c) Steve Scherf et al.
# Submitted via: CDex 1.40Beta9
#
DISCID=9509a90b
DTITLE=Sunnyland Slim Blues Band - Chicago Jump
DYEAR=1995
DGENRE=Blues
TTITLE0=You Used to Love Me
TTITLE1=Halsted Street Jump
TTITLE2=Cryin' for My Baby
TTITLE3=Give You All My Money
TTITLE4=Cutting Out
TTITLE5=I Feel So Bad
TTITLE6=Got to Stop This Mess
TTITLE7=From Afar
TTITLE8=Never Picked No Cotton
TTITLE9=Chicago Jump
TTITLE10=Jammin' With Sam
EXTD=YEAR: 1995 ID3G: 0
EXTT0=
EXTT1=
EXTT2=
EXTT3=
EXTT4=
EXTT5=
EXTT6=
EXTT7=
EXTT8=
EXTT9=
EXTT10=
PLAYORDER=
